<svg width="1280" height="520" viewBox="0 0 1280 520" fill="none" xmlns="http://www.w3.org/2000/svg" role="img" aria-labelledby="title desc">
  <title id="title">Honbaek banner</title>
  <desc id="desc">A dark terminal-inspired banner for the Honbaek local autonomous runtime.</desc>
  <defs>
    <linearGradient id="bg" x1="0" y1="0" x2="1280" y2="520" gradientUnits="userSpaceOnUse">
      <stop stop-color="#101820"/>
      <stop offset="0.52" stop-color="#17211B"/>
      <stop offset="1" stop-color="#241A22"/>
    </linearGradient>
    <linearGradient id="stroke" x1="120" y1="120" x2="1160" y2="420" gradientUnits="userSpaceOnUse">
      <stop stop-color="#7DD3FC"/>
      <stop offset="0.42" stop-color="#A7F3D0"/>
      <stop offset="1" stop-color="#F9A8D4"/>
    </linearGradient>
    <filter id="softShadow" x="-20%" y="-20%" width="140%" height="140%" color-interpolation-filters="sRGB">
      <feDropShadow dx="0" dy="18" stdDeviation="22" flood-color="#000000" flood-opacity="0.32"/>
    </filter>
  </defs>
  <rect width="1280" height="520" rx="34" fill="url(#bg)"/>
  <path d="M70 421C160 360 221 386 309 323C401 257 423 155 525 148C628 141 668 239 764 238C862 237 891 136 1000 123C1089 113 1160 165 1210 219" stroke="#2DD4BF" stroke-opacity="0.28" stroke-width="2"/>
  <path d="M81 148C193 210 247 178 345 235C453 298 459 407 574 408C693 410 744 292 857 297C964 302 1012 408 1197 357" stroke="#F9A8D4" stroke-opacity="0.2" stroke-width="2"/>
  <g filter="url(#softShadow)">
    <rect x="132" y="92" width="1016" height="336" rx="28" fill="#0B1115" fill-opacity="0.78" stroke="url(#stroke)" stroke-width="2"/>
    <rect x="160" y="124" width="956" height="56" rx="14" fill="#111A1F"/>
    <circle cx="190" cy="152" r="8" fill="#F87171"/>
    <circle cx="218" cy="152" r="8" fill="#FBBF24"/>
    <circle cx="246" cy="152" r="8" fill="#34D399"/>
    <text x="280" y="160" fill="#94A3B8" font-family="ui-monospace, SFMono-Regular, Menlo, Consolas, monospace" font-size="18">honbaek watch --concepts 魂 魄 心 身 命 怪異</text>
    <text x="178" y="249" fill="#F8FAFC" font-family="ui-serif, Georgia, serif" font-size="70" font-weight="700">Honbaek</text>
    <text x="178" y="303" fill="#A7F3D0" font-family="ui-monospace, SFMono-Regular, Menlo, Consolas, monospace" font-size="25">local autonomous runtime</text>
    <text x="178" y="354" fill="#CBD5E1" font-family="ui-monospace, SFMono-Regular, Menlo, Consolas, monospace" font-size="20">SQLite + JSONL journal  |  daemon + TUI  |  OpenAI-compatible provider boundary</text>
    <g transform="translate(780 216)">
      <rect x="0" y="0" width="88" height="78" rx="16" fill="#13201E" stroke="#7DD3FC" stroke-opacity="0.7"/>
      <rect x="108" y="0" width="88" height="78" rx="16" fill="#171C26" stroke="#A7F3D0" stroke-opacity="0.7"/>
      <rect x="216" y="0" width="88" height="78" rx="16" fill="#201722" stroke="#F9A8D4" stroke-opacity="0.7"/>
      <text x="44" y="51" text-anchor="middle" fill="#E0F2FE" font-family="ui-serif, Georgia, serif" font-size="34">魂</text>
      <text x="152" y="51" text-anchor="middle" fill="#DCFCE7" font-family="ui-serif, Georgia, serif" font-size="34">魄</text>
      <text x="260" y="51" text-anchor="middle" fill="#FCE7F3" font-family="ui-serif, Georgia, serif" font-size="34">心</text>
      <rect x="54" y="104" width="88" height="78" rx="16" fill="#111827" stroke="#FACC15" stroke-opacity="0.7"/>
      <rect x="162" y="104" width="88" height="78" rx="16" fill="#15211C" stroke="#34D399" stroke-opacity="0.7"/>
      <rect x="270" y="104" width="88" height="78" rx="16" fill="#24151D" stroke="#FB7185" stroke-opacity="0.7"/>
      <text x="98" y="155" text-anchor="middle" fill="#FEF9C3" font-family="ui-serif, Georgia, serif" font-size="34">身</text>
      <text x="206" y="155" text-anchor="middle" fill="#DCFCE7" font-family="ui-serif, Georgia, serif" font-size="34">命</text>
      <text x="314" y="155" text-anchor="middle" fill="#FFE4E6" font-family="ui-serif, Georgia, serif" font-size="28">怪異</text>
    </g>
  </g>
</svg>
